<svg width="32" height="27" viewBox="0 0 32 27" fill="none" xmlns="http://www.w3.org/2000/svg">
<path fill-rule="evenodd" clip-rule="evenodd" d="M28.5513 0.339791C28.943 0.17814 29.3716 0.122388 29.7926 0.178336C30.2137 0.234285 30.6117 0.399889 30.9453 0.657912C31.279 0.915936 31.536 1.25695 31.6896 1.64545C31.8433 2.03395 31.888 2.45574 31.819 2.86692L28.2249 24.248C27.8763 26.3105 25.5689 27.4932 23.6404 26.4659C22.0271 25.6064 19.6311 24.2822 17.4759 22.9006C16.3983 22.2089 13.0974 19.9942 13.503 18.4182C13.8517 17.0708 19.3981 12.0072 22.5675 8.99668C23.8115 7.81394 23.2442 7.13164 21.7752 8.21958C18.1272 10.9208 12.2701 15.0285 10.3336 16.1849C8.62534 17.2044 7.73474 17.3785 6.66982 17.2044C4.72698 16.8874 2.92518 16.3962 1.45458 15.7979C-0.532636 14.9897 -0.43597 12.3102 1.45299 11.53L28.5513 0.339791Z" fill="black"/>
</svg>
