<?xml version="1.0" encoding="iso-8859-1"?>
<!-- Uploaded to: SVG Repo, www.svgrepo.com, Generator: SVG Repo Mixer Tools -->
<svg version="1.1" id="Layer_1" xmlns="http://www.w3.org/2000/svg" xmlns:xlink="http://www.w3.org/1999/xlink" 
	 viewBox="0 0 512 512" xml:space="preserve">
<path style="fill:#2BA5F7;" d="M131.383,258.768c50.463,0,91.385,40.922,91.385,91.385c0,50.476-40.922,91.398-91.385,91.398
	c-50.476,0-91.398-40.922-91.398-91.398C39.986,299.69,80.907,258.768,131.383,258.768z"/>
<path style="fill:#2197D8;" d="M74.287,350.153c0-44.599,31.971-81.723,74.245-89.754c-5.557-1.056-11.284-1.631-17.149-1.631
	c-50.476,0-91.398,40.922-91.398,91.385c0,50.476,40.922,91.398,91.398,91.398c5.865,0,11.592-0.574,17.149-1.631
	C106.258,431.889,74.287,394.763,74.287,350.153z"/>
<path style="fill:#2BA5F7;" d="M380.624,258.768c50.463,0,91.385,40.922,91.385,91.385c0,50.476-40.922,91.398-91.385,91.398
	c-50.476,0-91.398-40.922-91.398-91.398C289.227,299.69,330.149,258.768,380.624,258.768z"/>
<path style="fill:#FFFFFF;" d="M165.462,408.598c-3.006,0-5.965-1.419-7.818-4.071c-3.015-4.313-1.962-10.254,2.352-13.269
	c13.452-9.401,21.482-24.768,21.482-41.105c0-11.037-3.534-21.51-10.222-30.289c-3.189-4.185-2.381-10.164,1.805-13.354
	c4.185-3.189,10.165-2.382,13.354,1.805c9.238,12.125,14.121,26.592,14.121,41.838c0,22.555-11.073,43.761-29.621,56.725
	C169.251,408.04,167.348,408.598,165.462,408.598z"/>
<line style="fill:none;stroke:#FFFFFF;stroke-width:15;stroke-linecap:round;stroke-linejoin:round;stroke-miterlimit:10;" x1="148.086" y1="292.907" x2="148.086" y2="292.907"/>
<path style="fill:#2197D8;" d="M323.528,350.153c0-44.599,31.971-81.723,74.245-89.754c-5.557-1.056-11.284-1.631-17.149-1.631
	c-50.476,0-91.398,40.922-91.398,91.385c0,50.476,40.922,91.398,91.398,91.398c5.864,0,11.592-0.574,17.149-1.631
	C355.499,431.889,323.528,394.763,323.528,350.153z"/>
<path style="fill:#FFFFFF;" d="M414.703,408.598c-3.006,0-5.965-1.419-7.817-4.071c-3.015-4.313-1.963-10.254,2.35-13.269
	c13.452-9.403,21.482-24.769,21.482-41.105c0-11.037-3.534-21.51-10.222-30.289c-3.189-4.186-2.381-10.165,1.805-13.354
	c4.185-3.189,10.165-2.382,13.354,1.805c9.238,12.127,14.12,26.594,14.12,41.838c0,22.555-11.073,43.76-29.621,56.724
	C418.493,408.04,416.589,408.598,414.703,408.598z"/>
<path style="fill:#333333;" d="M462.316,60.925c-27.395,0-49.684,22.288-49.684,49.684v18.001c0,5.262,4.266,9.529,9.529,9.529
	c5.262,0,9.529-4.266,9.529-9.529V110.61c0-16.887,13.739-30.627,30.627-30.627s30.627,13.739,30.627,30.627v209.085
	c0,8.378-4.957,15.6-12.082,18.944c-5.737-50.238-48.491-89.398-100.24-89.398c-52.431,0-95.635,40.196-100.454,91.389h-48.334
	c-4.819-51.192-48.023-91.389-100.454-91.389c-51.749,0-94.503,39.16-100.24,89.398c-7.125-3.344-12.082-10.566-12.082-18.944
	V110.61c0-16.887,13.739-30.627,30.626-30.627S80.31,93.721,80.31,110.61v18.001c0,5.262,4.266,9.529,9.529,9.529
	s9.529-4.266,9.529-9.529V110.61c0-27.395-22.288-49.684-49.684-49.684S0,83.213,0,110.61v209.085
	c0,18.903,13.187,34.774,30.843,38.923c4.316,51.698,47.742,92.456,100.535,92.456c52.431,0,95.635-40.196,100.454-91.389h48.334
	c4.819,51.192,48.023,91.389,100.454,91.389c52.794,0,96.22-40.758,100.535-92.456c17.658-4.149,30.846-20.02,30.846-38.923V110.61
	C512,83.213,489.712,60.925,462.316,60.925z M131.379,432.017c-45.137,0-81.86-36.722-81.86-81.86s36.722-81.86,81.86-81.86
	s81.86,36.722,81.86,81.86S176.517,432.017,131.379,432.017z M380.621,432.017c-45.137,0-81.86-36.722-81.86-81.86
	s36.722-81.86,81.86-81.86s81.86,36.722,81.86,81.86S425.758,432.017,380.621,432.017z"/>
<g>
	<circle style="fill:#FFFFFF;" cx="397.315" cy="292.907" r="9.529"/>
	<circle style="fill:#FFFFFF;" cx="148.086" cy="292.907" r="9.529"/>
</g>
</svg>